<svg version="1.1" id="Layer_1" xmlns="http://www.w3.org/2000/svg" xmlns:xlink="http://www.w3.org/1999/xlink" x="0px" y="0px"
	 width="100%" viewBox="0 0 151 159" enable-background="new 0 0 151 159" xml:space="preserve">
<path fill="#000000" opacity="1.000000" stroke="none" 
	d="
M99.000000,160.000000 
	C66.000000,160.000000 33.500000,160.000000 1.000000,160.000000 
	C1.000000,107.000000 1.000000,54.000000 1.000000,1.000000 
	C51.333332,1.000000 101.666664,1.000000 152.000000,1.000000 
	C152.000000,54.000000 152.000000,107.000000 152.000000,160.000000 
	C134.500000,160.000000 117.000000,160.000000 99.000000,160.000000 
M75.500000,38.998154 
	C66.834991,38.998363 58.169167,38.924614 49.505203,39.019943 
	C41.128685,39.112110 36.055210,44.091209 36.025642,52.379974 
	C35.950745,73.375755 35.944080,94.372200 36.026810,115.367912 
	C36.061199,124.095276 40.969292,128.945007 49.759018,128.976685 
	C70.588158,129.051743 91.417892,129.045868 112.247093,128.979324 
	C120.905350,128.951660 125.959404,123.924446 125.982849,115.361465 
	C126.039871,94.532219 126.048309,73.702538 125.979118,52.873360 
	C125.949242,43.882313 121.021744,39.054924 111.993256,39.012371 
	C100.162407,38.956612 88.331108,38.998352 75.500000,38.998154 
z"/>
<path fill="#1D9AEF" opacity="1.000000" stroke="none" 
	d="
M76.000000,38.998154 
	C88.331108,38.998352 100.162407,38.956612 111.993256,39.012371 
	C121.021744,39.054924 125.949242,43.882313 125.979118,52.873360 
	C126.048309,73.702538 126.039871,94.532219 125.982849,115.361465 
	C125.959404,123.924446 120.905350,128.951660 112.247093,128.979324 
	C91.417892,129.045868 70.588158,129.051743 49.759018,128.976685 
	C40.969292,128.945007 36.061199,124.095276 36.026810,115.367912 
	C35.944080,94.372200 35.950745,73.375755 36.025642,52.379974 
	C36.055210,44.091209 41.128685,39.112110 49.505203,39.019943 
	C58.169167,38.924614 66.834991,38.998363 76.000000,38.998154 
M64.503067,119.000198 
	C79.828506,119.000046 95.154007,118.979279 110.479347,119.016876 
	C113.598206,119.024536 116.059738,118.743904 116.040565,114.583168 
	C115.946960,94.260674 115.970512,73.937424 116.026558,53.614651 
	C116.035011,50.551605 115.021400,48.968994 111.718918,48.977673 
	C91.229546,49.031525 70.739960,49.014732 50.250481,48.989902 
	C47.392960,48.986439 45.971478,50.127064 45.978287,53.146545 
	C46.024513,73.635948 46.034294,94.125626 45.968761,114.614922 
	C45.958328,117.876640 47.411625,119.084602 50.512196,119.020882 
	C54.841469,118.931915 59.173962,118.999557 64.503067,119.000198 
z"/>
<path fill="#000101" opacity="1.000000" stroke="none" 
	d="
M64.004074,119.000198 
	C59.173962,118.999557 54.841469,118.931915 50.512196,119.020882 
	C47.411625,119.084602 45.958328,117.876640 45.968761,114.614922 
	C46.034294,94.125626 46.024513,73.635948 45.978287,53.146545 
	C45.971478,50.127064 47.392960,48.986439 50.250481,48.989902 
	C70.739960,49.014732 91.229546,49.031525 111.718918,48.977673 
	C115.021400,48.968994 116.035011,50.551605 116.026558,53.614651 
	C115.970512,73.937424 115.946960,94.260674 116.040565,114.583168 
	C116.059738,118.743904 113.598206,119.024536 110.479347,119.016876 
	C95.154007,118.979279 79.828506,119.000046 64.004074,119.000198 
M74.244278,74.560493 
	C73.253952,73.693871 72.365456,72.658379 71.255997,71.989304 
	C65.911888,68.766472 58.634270,70.036774 54.450573,74.824287 
	C50.087456,79.817123 49.806824,86.970291 53.763927,92.326378 
	C57.516197,97.405212 64.568298,99.218750 70.315445,96.582802 
	C74.996254,94.435944 76.111481,90.431442 74.232880,82.361588 
	C70.642654,82.361588 67.035393,82.361588 63.250977,82.361588 
	C63.250977,84.125542 63.250977,85.659515 63.250977,87.100525 
	C65.059517,87.538757 66.525078,87.893883 68.585876,88.393242 
	C65.724342,91.840797 62.466362,91.228271 60.848083,89.326752 
	C59.219330,87.412926 58.262817,83.938049 58.734035,81.476974 
	C59.319611,78.418671 62.550854,76.286858 65.715607,77.653763 
	C69.558281,79.313484 71.924774,78.243843 74.244278,74.560493 
M92.402985,71.035439 
	C92.402985,79.903053 92.402985,88.770668 92.402985,97.521362 
	C95.001785,97.521362 97.068596,97.521362 99.307076,97.521362 
	C99.508774,94.618050 99.687218,92.049446 99.879509,89.281540 
	C102.839775,89.147896 105.384949,89.032990 107.671204,88.929779 
	C107.671204,86.225739 107.671204,84.152817 107.671204,81.889809 
	C105.828522,81.889809 104.280334,82.151840 102.880661,81.808479 
	C101.721146,81.524033 100.736771,80.525635 99.674805,79.843552 
	C100.669594,79.089096 101.600449,77.815376 102.671890,77.683456 
	C105.257988,77.365051 107.909790,77.580177 110.699646,77.580177 
	C110.699646,74.886032 110.699646,72.688499 110.699646,70.389908 
	C104.602150,70.389908 98.832962,70.389908 92.402985,71.035439 
M86.249825,70.323822 
	C84.315933,70.323822 82.382042,70.323822 80.417542,70.323822 
	C80.417542,79.699898 80.417542,88.696472 80.417542,97.555672 
	C82.774399,97.555672 84.703720,97.555672 86.875168,97.555672 
	C86.875168,88.518150 86.875168,79.759903 86.249825,70.323822 
z"/>
<path fill="#1B93E3" opacity="1.000000" stroke="none" 
	d="
M74.190918,74.941254 
	C71.924774,78.243843 69.558281,79.313484 65.715607,77.653763 
	C62.550854,76.286858 59.319611,78.418671 58.734035,81.476974 
	C58.262817,83.938049 59.219330,87.412926 60.848083,89.326752 
	C62.466362,91.228271 65.724342,91.840797 68.585876,88.393242 
	C66.525078,87.893883 65.059517,87.538757 63.250977,87.100525 
	C63.250977,85.659515 63.250977,84.125542 63.250977,82.361588 
	C67.035393,82.361588 70.642654,82.361588 74.232880,82.361588 
	C76.111481,90.431442 74.996254,94.435944 70.315445,96.582802 
	C64.568298,99.218750 57.516197,97.405212 53.763927,92.326378 
	C49.806824,86.970291 50.087456,79.817123 54.450573,74.824287 
	C58.634270,70.036774 65.911888,68.766472 71.255997,71.989304 
	C72.365456,72.658379 73.253952,73.693871 74.190918,74.941254 
z"/>
<path fill="#1B90E0" opacity="1.000000" stroke="none" 
	d="
M92.733383,70.712677 
	C98.832962,70.389908 104.602150,70.389908 110.699646,70.389908 
	C110.699646,72.688499 110.699646,74.886032 110.699646,77.580177 
	C107.909790,77.580177 105.257988,77.365051 102.671890,77.683456 
	C101.600449,77.815376 100.669594,79.089096 99.674805,79.843552 
	C100.736771,80.525635 101.721146,81.524033 102.880661,81.808479 
	C104.280334,82.151840 105.828522,81.889809 107.671204,81.889809 
	C107.671204,84.152817 107.671204,86.225739 107.671204,88.929779 
	C105.384949,89.032990 102.839775,89.147896 99.879509,89.281540 
	C99.687218,92.049446 99.508774,94.618050 99.307076,97.521362 
	C97.068596,97.521362 95.001785,97.521362 92.402985,97.521362 
	C92.402985,88.770668 92.402985,79.903053 92.733383,70.712677 
z"/>
<path fill="#1D98EC" opacity="1.000000" stroke="none" 
	d="
M86.562500,70.662735 
	C86.875168,79.759903 86.875168,88.518150 86.875168,97.555672 
	C84.703720,97.555672 82.774399,97.555672 80.417542,97.555672 
	C80.417542,88.696472 80.417542,79.699898 80.417542,70.323822 
	C82.382042,70.323822 84.315933,70.323822 86.562500,70.662735 
z"/>
</svg>