<svg version="1.1" id="Layer_1" xmlns="http://www.w3.org/2000/svg" xmlns:xlink="http://www.w3.org/1999/xlink" x="0px" y="0px"
	 width="100%" viewBox="0 0 117 178" enable-background="new 0 0 117 178" xml:space="preserve">
<path fill="#000000" opacity="1.000000" stroke="none" 
	d="
M74.000000,179.000000 
	C50.333332,179.000000 27.166449,178.954529 4.000315,179.065628 
	C1.499177,179.077606 0.933040,178.499435 0.936624,175.999908 
	C1.018829,118.666695 1.018829,61.333305 0.936624,4.000091 
	C0.933040,1.500578 1.500118,0.929414 4.000162,0.935713 
	C40.999928,1.028934 78.000076,1.028934 114.999840,0.935713 
	C117.499878,0.929414 118.066963,1.500578 118.063377,4.000091 
	C117.981178,61.333305 117.981171,118.666695 118.063377,175.999908 
	C118.066963,178.499435 117.503082,179.093933 114.999290,179.067490 
	C101.500793,178.924896 88.000000,179.000000 74.000000,179.000000 
z"/>
<path fill="#0F4C74" opacity="1.000000" stroke="none" 
	d="
M98.596687,111.546036 
	C90.456566,128.449036 77.526367,140.511398 62.914726,151.057785 
	C61.131317,152.345016 59.526348,152.786957 57.503262,151.351425 
	C42.935024,141.014038 29.929434,129.158859 22.084162,112.774628 
	C14.768561,97.496582 16.007034,82.543999 26.348442,69.027023 
	C37.318882,54.687851 52.278511,49.303989 69.731140,53.381805 
	C86.787125,57.366943 97.458046,68.731438 101.470459,85.794731 
	C103.500336,94.426994 102.385490,103.024841 98.596687,111.546036 
z"/>
<path fill="#000101" opacity="1.000000" stroke="none" 
	d="
M87.602020,77.571793 
	C94.271156,89.383965 93.689697,100.779427 87.171043,112.005249 
	C80.977890,122.670540 72.264870,131.066833 62.762608,138.734329 
	C61.158947,140.028351 59.666878,140.535248 57.874676,139.105179 
	C46.881199,130.333023 36.572479,120.890640 30.772154,107.729294 
	C23.636219,91.537354 29.279486,74.916634 44.511520,66.126122 
	C58.293602,58.172382 76.153282,62.238304 86.252182,75.631470 
	C86.652267,76.162064 87.027534,76.711365 87.602020,77.571793 
z"/>
<path fill="#0F4C75" opacity="1.000000" stroke="none" 
	d="
M77.319885,94.060471 
	C76.516624,103.550743 72.004395,109.439873 64.423119,111.368759 
	C57.086666,113.235352 49.337296,110.210587 45.321213,103.912811 
	C41.335251,97.662262 41.838264,89.361725 46.562126,83.435989 
	C50.676811,78.274422 58.105759,75.895584 64.478569,77.698944 
	C71.933212,79.808434 76.229698,85.147339 77.319885,94.060471 
z"/>
<path fill="#010405" opacity="1.000000" stroke="none" 
	d="
M53.031654,92.519363 
	C54.685482,88.533173 57.302933,86.575607 61.308590,87.336235 
	C64.751053,87.989922 66.808861,90.170189 67.193481,93.749443 
	C67.581566,97.360924 65.897415,99.803719 62.721855,101.231560 
	C57.520504,103.570259 52.932533,99.635574 53.031654,92.519363 
z"/>
</svg>