<svg version="1.1" id="Layer_1" xmlns="http://www.w3.org/2000/svg" xmlns:xlink="http://www.w3.org/1999/xlink" x="0px" y="0px"
	 width="100%" viewBox="0 0 244 244" enable-background="new 0 0 244 244" xml:space="preserve">
<path fill="#000101" opacity="1.000000" stroke="none" 
	d="
M113.000000,245.000000 
	C75.333336,245.000000 38.166672,245.000000 1.000003,245.000000 
	C1.000000,165.000000 1.028045,84.999969 0.903928,5.000170 
	C0.898615,1.575843 1.575690,0.898453 5.000131,0.903879 
	C83.666595,1.028514 162.333359,1.028510 240.999817,0.903886 
	C244.424133,0.898462 245.101547,1.575651 245.096130,5.000116 
	C244.971497,83.666580 244.971497,162.333344 245.096115,240.999802 
	C245.101532,244.424103 244.425629,245.110321 240.999695,245.098190 
	C198.500214,244.947891 156.000015,245.000000 113.000000,245.000000 
z"/>
<path fill="#1C97EA" opacity="1.000000" stroke="none" 
	d="
M89.186813,62.789650 
	C110.458824,79.011612 106.902977,111.017654 83.463211,122.109787 
	C68.366425,129.253845 51.280441,124.870209 40.703796,111.183174 
	C31.442152,99.197853 31.911629,81.111961 41.798283,69.019402 
	C52.160461,56.345226 69.633751,52.558201 84.139381,59.868740 
	C85.768433,60.689751 87.323486,61.657574 89.186813,62.789650 
z"/>
<path fill="#1C98EB" opacity="1.000000" stroke="none" 
	d="
M62.590054,211.784531 
	C43.769070,207.736420 33.361191,191.936279 34.090584,176.047668 
	C34.961994,157.065567 51.408573,142.007111 70.319344,143.023392 
	C89.994522,144.080750 104.360207,160.382248 103.164627,180.294647 
	C102.043869,198.960892 85.430000,213.371414 66.519859,212.078613 
	C65.356041,211.999039 64.192711,211.912308 62.590054,211.784531 
z"/>
<path fill="#1C93E4" opacity="1.000000" stroke="none" 
	d="
M122.813919,99.477753 
	C119.058907,94.275093 120.973412,88.637825 121.171112,83.238007 
	C121.247200,81.159973 123.942024,82.051224 125.437859,82.047409 
	C149.251755,81.986641 173.065842,82.004311 196.879883,82.004135 
	C207.701630,82.004051 207.701614,82.004120 207.685501,93.061005 
	C207.676056,99.544098 207.676071,99.549606 201.177383,99.548050 
	C175.198502,99.541817 149.219635,99.531860 122.813919,99.477753 
z"/>
<path fill="#1C98EC" opacity="1.000000" stroke="none" 
	d="
M130.042694,168.938995 
	C154.684875,168.939072 178.832504,169.025330 202.978210,168.849701 
	C206.757889,168.822220 207.750458,169.899200 207.738297,173.602509 
	C207.696564,186.313431 207.838120,186.313980 195.404434,186.313889 
	C172.256622,186.313721 149.107986,186.212585 125.961777,186.405029 
	C121.731697,186.440201 120.191147,185.093185 120.759727,181.015457 
	C120.919167,179.872009 120.783539,178.687424 120.783524,177.521713 
	C120.783409,168.939636 120.783424,168.939636 130.042694,168.938995 
z"/>
<path fill="#01070B" opacity="1.000000" stroke="none" 
	d="
M85.498566,86.851120 
	C86.781822,96.603592 82.637672,104.171005 74.849129,106.913589 
	C66.883423,109.718544 58.361286,106.978516 54.230156,100.253769 
	C50.374302,93.977112 50.259399,87.571220 54.256649,81.416031 
	C58.132820,75.447296 63.860363,72.801819 70.971336,73.789223 
	C78.483917,74.832375 83.336052,79.093979 85.498566,86.851120 
z"/>
<path fill="#010406" opacity="1.000000" stroke="none" 
	d="
M86.009277,177.983398 
	C84.678017,187.507370 79.466866,193.446259 71.663261,194.750381 
	C64.042282,196.024002 56.567917,192.103394 53.126842,185.027298 
	C48.888546,176.311813 52.725380,165.806793 61.558277,161.942581 
	C70.800423,157.899307 81.213364,162.026535 84.685448,171.248322 
	C85.434441,173.237625 85.585548,175.452026 86.009277,177.983398 
z"/>
<path fill="#1C94E5" opacity="1.000000" stroke="none" 
	d="
M73.536743,97.790695 
	C69.423813,99.982803 65.876808,99.803123 62.713345,96.778427 
	C60.188599,94.364433 59.477211,91.348686 60.600937,88.120995 
	C61.712563,84.928062 64.081352,82.886528 67.512932,82.419510 
	C71.393753,81.891373 74.378052,83.495995 76.165375,86.890854 
	C78.318184,90.979942 77.203621,94.560959 73.536743,97.790695 
z"/>
</svg>