<svg version="1.1" id="Layer_1" xmlns="http://www.w3.org/2000/svg" xmlns:xlink="http://www.w3.org/1999/xlink" x="0px" y="0px"
	 width="100%" viewBox="0 0 228 217" enable-background="new 0 0 228 217" xml:space="preserve">
<path fill="#000102" opacity="1.000000" stroke="none" 
	d="
M160.000000,218.000000 
	C108.000000,218.000000 56.499889,217.956787 5.000275,218.097443 
	C1.575055,218.106796 0.897427,217.424423 0.903598,213.999847 
	C1.031543,143.000076 1.000000,72.000023 1.000000,1.000011 
	C75.666656,1.000000 150.333359,1.030015 224.999802,0.903746 
	C228.424210,0.897955 229.102768,1.575482 229.096451,5.000142 
	C228.967850,74.666565 228.967865,144.333359 229.096451,213.999771 
	C229.102768,217.424271 228.429169,218.133652 224.999100,218.101593 
	C203.500961,217.900604 182.000015,218.000000 160.000000,218.000000 
z"/>
<path fill="#1C97E9" opacity="1.000000" stroke="none" 
	d="
M72.769661,181.800598 
	C65.794426,181.792252 59.289963,181.954178 52.797882,181.740280 
	C38.928974,181.283371 30.169836,172.306656 30.140297,158.431183 
	C30.068281,124.603622 30.059669,90.775688 30.143663,56.948189 
	C30.177343,43.383221 39.043613,34.495949 52.626915,34.040157 
	C54.291542,33.984303 55.969322,33.906750 57.623894,34.044605 
	C62.139526,34.420845 66.122337,34.361530 64.964813,27.902956 
	C64.618965,25.973248 65.897842,25.271708 67.698868,25.288254 
	C70.364723,25.312742 73.050056,25.482338 75.693001,25.231264 
	C80.191841,24.803885 83.286232,25.519228 82.190147,31.176439 
	C81.769501,33.347538 83.086784,34.040421 85.142242,34.035145 
	C100.472908,33.995800 115.803963,33.973415 131.134262,34.058849 
	C133.616669,34.072681 134.565140,33.053879 134.164627,30.802565 
	C133.283340,25.848669 135.801666,24.724327 140.057358,25.250620 
	C141.370377,25.413000 142.727539,25.364874 144.052292,25.259678 
	C148.705826,24.890148 152.907883,24.875620 151.749237,31.638622 
	C151.405624,33.644226 153.021515,34.026375 154.693695,34.020195 
	C158.026154,34.007881 161.364182,33.925438 164.690430,34.078148 
	C177.345459,34.659138 185.789764,43.104412 186.267303,55.718758 
	C186.443710,60.378128 186.200989,65.053131 186.367767,69.713188 
	C186.462738,72.366890 185.441299,73.017006 182.882629,73.119858 
	C169.030685,73.676659 169.033646,73.750168 169.019440,60.037540 
	C169.011124,52.027287 168.525635,51.539772 160.533920,51.526325 
	C159.034164,51.523800 157.523788,51.642231 156.036896,51.504353 
	C152.979309,51.220821 151.122940,52.112396 151.667664,55.585571 
	C152.300598,59.621193 150.177582,60.449055 146.726593,60.092808 
	C144.748016,59.888561 142.716370,59.900459 140.734406,60.087811 
	C136.360367,60.501286 133.035339,60.013760 134.150711,54.231117 
	C134.593857,51.933582 133.048279,51.514694 131.115234,51.518597 
	C115.951180,51.549210 100.786629,51.590595 85.623245,51.484364 
	C82.586266,51.463081 81.775703,52.879044 82.167343,55.453526 
	C82.756645,59.327408 81.009773,60.528984 77.382957,60.093452 
	C75.576004,59.876465 73.709709,59.922539 71.890747,60.082542 
	C67.490738,60.469597 63.670284,60.360966 64.857697,54.139572 
	C65.045448,53.155849 64.796692,51.874344 63.570267,51.799438 
	C58.945755,51.516998 54.198879,50.657822 49.753075,52.368370 
	C47.178642,53.358902 47.487122,56.199989 47.482765,58.521217 
	C47.458679,71.352371 47.469513,84.183586 47.469349,97.014786 
	C47.469093,116.844818 47.456875,136.674866 47.476852,156.504883 
	C47.483692,163.293686 48.432301,164.218521 55.345665,164.265305 
	C61.177769,164.304794 67.018196,164.459045 72.839874,164.210251 
	C76.587891,164.050064 78.523964,164.936798 78.010338,169.146454 
	C77.689789,171.773605 77.723244,174.495850 78.004395,177.132080 
	C78.407532,180.912186 76.967789,182.419159 72.769661,181.800598 
z"/>
<path fill="#1C97EA" opacity="1.000000" stroke="none" 
	d="
M165.100098,196.171127 
	C129.950211,207.120865 96.325478,184.144257 91.610809,150.959641 
	C88.604630,129.800293 95.508324,111.924271 112.174004,98.652397 
	C129.488358,84.863945 149.139008,82.186996 169.513153,90.902786 
	C191.579575,100.342529 204.629944,121.468948 203.694458,144.288727 
	C202.712860,168.233734 188.494720,187.473541 165.100098,196.171127 
z"/>
<path fill="#010305" opacity="1.000000" stroke="none" 
	d="
M109.913101,132.082489 
	C115.411850,111.802521 137.222916,99.361992 156.974838,104.915840 
	C178.294983,110.910637 190.785538,132.149017 184.918823,152.430557 
	C179.831100,170.019165 165.273621,181.460220 147.669159,181.705948 
	C130.429779,181.946548 115.167465,170.460037 109.892929,153.099686 
	C107.820869,146.279831 107.737297,139.359558 109.913101,132.082489 
z"/>
<path fill="#1C98EB" opacity="1.000000" stroke="none" 
	d="
M156.055466,137.314667 
	C158.545731,143.241302 163.625641,146.442596 167.654205,150.524902 
	C170.301788,153.207779 170.271317,154.630463 167.603455,157.245255 
	C158.566574,166.102356 159.168304,165.634338 149.540237,157.397919 
	C140.938583,150.039536 137.274399,141.923264 138.439209,130.589142 
	C139.429108,120.956985 138.643616,120.876266 148.251083,120.876701 
	C156.035202,120.877052 156.034470,120.877045 156.036011,128.888016 
	C156.036514,131.554199 156.041855,134.220367 156.055466,137.314667 
z"/>
</svg>