<svg version="1.1" id="Layer_1" xmlns="http://www.w3.org/2000/svg" xmlns:xlink="http://www.w3.org/1999/xlink" x="0px" y="0px"
	 width="100%" viewBox="0 0 133 132" enable-background="new 0 0 133 132" xml:space="preserve">
<path fill="#000001" opacity="1.000000" stroke="none" 
	d="
M76.000000,133.000000 
	C50.666668,133.000000 25.833334,133.000000 1.000000,133.000000 
	C1.000000,89.000000 1.000000,45.000000 1.000000,1.000000 
	C45.333332,1.000000 89.666664,1.000000 134.000000,1.000000 
	C134.000000,45.000000 134.000000,89.000000 134.000000,133.000000 
	C114.833336,133.000000 95.666664,133.000000 76.000000,133.000000 
M65.603600,15.912753 
	C54.227928,16.315895 44.294106,20.377985 35.454620,27.484846 
	C18.037550,41.488010 11.860547,67.002998 21.040262,87.526619 
	C30.612490,108.927795 53.581657,121.535500 75.914642,117.647011 
	C103.404152,112.860687 121.476974,89.184921 118.924568,61.303108 
	C116.548058,35.342808 93.679680,15.512216 65.603600,15.912753 
z"/>
<path fill="#1C97E9" opacity="1.000000" stroke="none" 
	d="
M66.083290,15.904938 
	C93.679680,15.512216 116.548058,35.342808 118.924568,61.303108 
	C121.476974,89.184921 103.404152,112.860687 75.914642,117.647011 
	C53.581657,121.535500 30.612490,108.927795 21.040262,87.526619 
	C11.860547,67.002998 18.037550,41.488010 35.454620,27.484846 
	C44.294106,20.377985 54.227928,16.315895 66.083290,15.904938 
M97.807518,38.701450 
	C89.889091,30.642115 80.335823,26.213551 68.996544,25.920725 
	C46.578964,25.341812 28.100386,42.659943 26.992273,65.214882 
	C25.908142,87.281693 42.834270,106.346230 64.931847,107.947678 
	C82.013969,109.185646 97.208366,100.395081 105.057213,84.733536 
	C112.378723,70.124237 109.784622,52.749126 97.807518,38.701450 
z"/>
<path fill="#000102" opacity="1.000000" stroke="none" 
	d="
M98.037430,38.978474 
	C109.784622,52.749126 112.378723,70.124237 105.057213,84.733536 
	C97.208366,100.395081 82.013969,109.185646 64.931847,107.947678 
	C42.834270,106.346230 25.908142,87.281693 26.992273,65.214882 
	C28.100386,42.659943 46.578964,25.341812 68.996544,25.920725 
	C80.335823,26.213551 89.889091,30.642115 98.037430,38.978474 
M88.963020,77.222298 
	C87.102180,76.691101 85.241341,76.159912 83.496147,75.661728 
	C75.229393,90.910362 60.641144,90.492180 52.171661,75.653069 
	C49.353905,76.586914 46.475109,77.540985 43.599785,78.493904 
	C47.393803,89.533051 56.310940,96.512939 66.622375,96.957993 
	C77.308502,97.419220 86.896828,91.435806 91.455109,81.716652 
	C92.593842,79.288658 92.367973,77.996185 88.963020,77.222298 
M48.041542,56.170528 
	C48.849838,58.668072 49.261066,61.396297 50.549847,63.614708 
	C53.159435,68.106651 57.548378,68.037094 60.518665,63.769527 
	C63.826565,59.016884 63.804688,50.082523 60.473438,45.294720 
	C57.497833,41.018063 53.026394,40.816307 50.557426,45.400860 
	C48.985836,48.319099 48.803101,51.985291 48.041542,56.170528 
M80.508415,66.979553 
	C86.299370,65.796036 87.332214,61.072495 87.831543,56.420761 
	C88.375717,51.351215 87.741035,46.190605 83.067558,43.081882 
	C81.763466,42.214424 78.684425,42.531254 77.294983,43.526665 
	C70.354469,48.498901 72.009254,62.952484 80.508415,66.979553 
z"/>
<path fill="#1C96E8" opacity="1.000000" stroke="none" 
	d="
M89.296494,77.368988 
	C92.367973,77.996185 92.593842,79.288658 91.455109,81.716652 
	C86.896828,91.435806 77.308502,97.419220 66.622375,96.957993 
	C56.310940,96.512939 47.393803,89.533051 43.599785,78.493904 
	C46.475109,77.540985 49.353905,76.586914 52.171661,75.653069 
	C60.641144,90.492180 75.229393,90.910362 83.496147,75.661728 
	C85.241341,76.159912 87.102180,76.691101 89.296494,77.368988 
z"/>
<path fill="#1C96E8" opacity="1.000000" stroke="none" 
	d="
M48.019569,55.743317 
	C48.803101,51.985291 48.985836,48.319099 50.557426,45.400860 
	C53.026394,40.816307 57.497833,41.018063 60.473438,45.294720 
	C63.804688,50.082523 63.826565,59.016884 60.518665,63.769527 
	C57.548378,68.037094 53.159435,68.106651 50.549847,63.614708 
	C49.261066,61.396297 48.849838,58.668072 48.019569,55.743317 
z"/>
<path fill="#1C96E8" opacity="1.000000" stroke="none" 
	d="
M80.131485,66.928314 
	C72.009254,62.952484 70.354469,48.498901 77.294983,43.526665 
	C78.684425,42.531254 81.763466,42.214424 83.067558,43.081882 
	C87.741035,46.190605 88.375717,51.351215 87.831543,56.420761 
	C87.332214,61.072495 86.299370,65.796036 80.131485,66.928314 
z"/>
</svg>